<?xml version="1.0" encoding="UTF-8"?>
<svg id="Layer_1" xmlns="http://www.w3.org/2000/svg" version="1.1" viewBox="0 0 624.59 494.93">
  <!-- Generator: Adobe Illustrator 29.6.1, SVG Export Plug-In . SVG Version: 2.1.1 Build 9)  -->
  <defs>
    <style>
      .st0 {
        fill: #d11e0f;
      }
    </style>
  </defs>
  <circle class="st0" cx="378.01" cy="247.79" r="236.33"/>
  <g>
    <path d="M252.67,10.87C117.58,10.87,7.67,116.13,7.67,245.48c0,16.47,1.81,32.48,5.17,47.98.58,2.78,1.23,5.55,2,8.27,26.35,102.29,123.02,178.29,237.83,178.29s214.71-78.65,239.12-183.52c3.81-16.4,5.81-33.51,5.81-51.01,0-129.34-109.84-234.6-244.93-234.6h0ZM251.32,473.55c-108.1,0-198.63-75.17-222.14-176.1,51.53-17.56,94.67-58.38,134.19-114.49,89.76,54.57,191.27,94.34,309.19,118.56-24.99,98.86-114.56,172.03-221.23,172.03h-.01ZM474.49,292.95c-123.4-25.83-225.76-65.03-319-130.18-18.47,45.2-79.43,110.36-127.92,127.15-2.84-14.4-4.33-29.25-4.33-44.43C23.24,119.5,125.33,17.35,251.32,17.35s228.14,102.16,228.14,228.14c0,16.27-1.68,32.16-4.97,47.46h0Z"/>
    <path d="M341.71,218.84c-22.64-4.27-44.62-15.51-61.53-30.74-3.1-2.9-8.2-2.33-10.57,1.2-2.19,3.2-1.37,7.58,1.84,9.77,20.91,14,44.94,22.4,69.86,23.66,2.36.14,2.74-3.53.4-3.88h0Z"/>
  </g>
</svg>